# xmcd
#
# Track frame offsets: 
#        150
#        19072
#        33337
#        46065
#        90970
#        123527
#        154860
#        174757
#        188285
#        219275
#        255932
#        281725
#
# Disc length: 3941 seconds
#
# Revision: 2
# Processed by: cddbd v1.5.2PL0 Copyright (c) Steve Scherf et al.
# Submitted via: ExactAudioCopy v0.99pb3
#
DISCID=870f630c
DTITLE=Various Artist - Saxophone Jazz
DYEAR=2000
DGENRE=Jazz
TTITLE0=Sidney Bechet - Summertime
TTITLE1=Lester Young - These Foolish Things
TTITLE2=Coleman Hawkins - Someone to Watch Over Me
TTITLE3=Sonny Rollins - How are Things in Glocca Morra
TTITLE4=John Coletrane - Locomotion
TTITLE5=Dexter Gordon - Stairway to the Stars
TTITLE6=Charlie Parker - Ornithology
TTITLE7=Stan Getz - Autumn Leaves
TTITLE8=Lou Donaldson - Alligator Boogaloo
TTITLE9=Wayne Shorter - Witch Hunt
TTITLE10=Art Pepper - Yardbird Suite
TTITLE11=Cannonball Adderley - Mercy Mercy Mercy
EXTD=YEAR: 2000
EXTT0=
EXTT1=
EXTT2=
EXTT3=
EXTT4=
EXTT5=
EXTT6=
EXTT7=
EXTT8=
EXTT9=
EXTT10=
EXTT11=
PLAYORDER=
